<svg width="151" height="30" viewBox="0 0 151 30" fill="none" xmlns="http://www.w3.org/2000/svg">
<path d="M13.2871 11.6667H9.96535V0H6.64357V11.6667H3.32178V0H0V13.3333C0 16.09 2.23556 18.3333 4.98267 18.3333H6.64357V30H9.96535V18.3333H11.6262C14.3734 18.3333 16.6089 16.09 16.6089 13.3333V0H13.2871V11.6667ZM24.9134 0H23.2525C21.3275 0 19.9307 2.10333 19.9307 5V18.3333H23.2525V30H26.5743V1.66667C26.5743 1.22464 26.3993 0.800716 26.0878 0.488155C25.7763 0.175595 25.3539 0 24.9134 0Z" fill="#FFFF00"/>
<path d="M51.6687 28.3333L46.96 21.5083H41.7631V28.3333H36.1128V3.83333H46.681C48.8435 3.83333 50.7153 4.195 52.2965 4.91833C53.9009 5.64167 55.1333 6.66833 55.9936 7.99833C56.854 9.32833 57.2841 10.9033 57.2841 12.7233C57.2841 14.5433 56.8424 16.1183 55.9588 17.4483C55.0984 18.755 53.866 19.7583 52.2616 20.4583L57.7376 28.3333H51.6687ZM51.564 12.7233C51.564 11.3467 51.1222 10.2967 50.2386 9.57333C49.355 8.82667 48.0645 8.45333 46.3671 8.45333H41.7631V16.9933H46.3671C48.0645 16.9933 49.355 16.62 50.2386 15.8733C51.1222 15.1267 51.564 14.0767 51.564 12.7233Z" fill="#FFFF00"/>
<path d="M79.7583 18.9883C79.7583 19.0583 79.7234 19.5483 79.6537 20.4583H65.458C65.7138 21.625 66.3184 22.5467 67.2717 23.2233C68.2251 23.9 69.4109 24.2383 70.8293 24.2383C71.806 24.2383 72.6663 24.0983 73.4104 23.8183C74.1777 23.515 74.8869 23.0483 75.538 22.4183L78.4329 25.5683C76.6657 27.5983 74.0847 28.6133 70.6898 28.6133C68.5739 28.6133 66.702 28.205 65.0744 27.3883C63.4467 26.5483 62.1911 25.3933 61.3075 23.9233C60.4239 22.4533 59.9821 20.785 59.9821 18.9183C59.9821 17.075 60.4122 15.4183 61.2726 13.9483C62.1562 12.455 63.3537 11.3 64.8651 10.4833C66.3997 9.64333 68.1088 9.22333 69.9923 9.22333C71.8292 9.22333 73.4918 9.62 74.9799 10.4133C76.4681 11.2067 77.6307 12.35 78.4678 13.8433C79.3281 15.3133 79.7583 17.0283 79.7583 18.9883ZM70.0271 13.3533C68.7948 13.3533 67.76 13.7033 66.9229 14.4033C66.0858 15.1033 65.5743 16.06 65.3883 17.2733H74.6311C74.4451 16.0833 73.9336 15.1383 73.0965 14.4383C72.2594 13.715 71.2363 13.3533 70.0271 13.3533Z" fill="#FFFF00"/>
<path d="M89.6938 28.6133C88.1359 28.6133 86.6129 28.4267 85.1247 28.0533C83.6366 27.6567 82.4507 27.1667 81.5671 26.5833L83.3808 22.6633C84.2179 23.2 85.2294 23.6433 86.4152 23.9933C87.6011 24.32 88.7637 24.4833 89.9031 24.4833C92.2051 24.4833 93.3561 23.9117 93.3561 22.7683C93.3561 22.2317 93.0422 21.8467 92.4144 21.6133C91.7866 21.38 90.8216 21.1817 89.5194 21.0183C87.9848 20.785 86.7175 20.5167 85.7177 20.2133C84.7178 19.91 83.8458 19.3733 83.1018 18.6033C82.3809 17.8333 82.0205 16.7367 82.0205 15.3133C82.0205 14.1233 82.3577 13.0733 83.032 12.1633C83.7296 11.23 84.7294 10.5067 86.0316 9.99333C87.357 9.48 88.9149 9.22333 90.7053 9.22333C92.0307 9.22333 93.3445 9.375 94.6466 9.67833C95.972 9.95833 97.0649 10.355 97.9252 10.8683L96.1115 14.7533C94.4606 13.82 92.6585 13.3533 90.7053 13.3533C89.5427 13.3533 88.6707 13.5167 88.0894 13.8433C87.5081 14.17 87.2174 14.59 87.2174 15.1033C87.2174 15.6867 87.5313 16.095 88.1592 16.3283C88.787 16.5617 89.7868 16.7833 91.1587 16.9933C92.6934 17.25 93.949 17.53 94.9256 17.8333C95.9022 18.1133 96.751 18.6383 97.4718 19.4083C98.1926 20.1783 98.553 21.2517 98.553 22.6283C98.553 23.795 98.2042 24.8333 97.5067 25.7433C96.8091 26.6533 95.786 27.365 94.4373 27.8783C93.1119 28.3683 91.5308 28.6133 89.6938 28.6133Z" fill="#FFFF00"/>
<path d="M114.013 27.4233C113.478 27.82 112.816 28.1233 112.025 28.3333C111.258 28.52 110.444 28.6133 109.583 28.6133C107.351 28.6133 105.619 28.0417 104.386 26.8983C103.177 25.755 102.573 24.075 102.573 21.8583V14.1233H99.6779V9.92333H102.573V5.33833H108.014V9.92333H112.688V14.1233H108.014V21.7883C108.014 22.5817 108.212 23.2 108.607 23.6433C109.025 24.0633 109.607 24.2733 110.351 24.2733C111.211 24.2733 111.944 24.04 112.548 23.5733L114.013 27.4233Z" fill="#FFFF00"/>
<path d="M122.264 11.9883C122.915 11.0783 123.787 10.39 124.88 9.92333C125.996 9.45667 127.275 9.22333 128.717 9.22333V14.2633C128.112 14.2167 127.705 14.1933 127.496 14.1933C125.938 14.1933 124.717 14.6367 123.834 15.5233C122.95 16.3867 122.508 17.6933 122.508 19.4433V28.3333H117.067V9.50333H122.264V11.9883Z" fill="#FFFF00"/>
<path d="M140.711 28.6133C138.734 28.6133 136.956 28.205 135.374 27.3883C133.816 26.5483 132.596 25.3933 131.712 23.9233C130.828 22.4533 130.387 20.785 130.387 18.9183C130.387 17.0517 130.828 15.3833 131.712 13.9133C132.596 12.4433 133.816 11.3 135.374 10.4833C136.956 9.64333 138.734 9.22333 140.711 9.22333C142.687 9.22333 144.454 9.64333 146.012 10.4833C147.57 11.3 148.791 12.4433 149.675 13.9133C150.558 15.3833 151 17.0517 151 18.9183C151 20.785 150.558 22.4533 149.675 23.9233C148.791 25.3933 147.57 26.5483 146.012 27.3883C144.454 28.205 142.687 28.6133 140.711 28.6133ZM140.711 24.1333C142.106 24.1333 143.245 23.6667 144.129 22.7333C145.036 21.7767 145.489 20.505 145.489 18.9183C145.489 17.3317 145.036 16.0717 144.129 15.1383C143.245 14.1817 142.106 13.7033 140.711 13.7033C139.316 13.7033 138.165 14.1817 137.258 15.1383C136.351 16.0717 135.898 17.3317 135.898 18.9183C135.898 20.505 136.351 21.7767 137.258 22.7333C138.165 23.6667 139.316 24.1333 140.711 24.1333Z" fill="#FFFF00"/>
</svg>
